<mxfile host="Electron" modified="2023-04-16T17:49:45.752Z" agent="Mozilla/5.0 (Windows NT 10.0; Win64; x64) AppleWebKit/537.36 (KHTML, like Gecko) draw.io/21.1.2 Chrome/106.0.5249.199 Electron/21.4.3 Safari/537.36" etag="_-CrB0dHaxZrl22COGzM" version="21.1.2" type="device" pages="2">
  <diagram id="C5RBs43oDa-KdzZeNtuy" name="data_pipeline">
    <mxGraphModel dx="978" dy="566" grid="1" gridSize="10" guides="1" tooltips="1" connect="1" arrows="1" fold="1" page="1" pageScale="1" pageWidth="827" pageHeight="1169" math="0" shadow="0">
      <root>
        <mxCell id="WIyWlLk6GJQsqaUBKTNV-0" />
        <mxCell id="WIyWlLk6GJQsqaUBKTNV-1" parent="WIyWlLk6GJQsqaUBKTNV-0" />
        <mxCell id="f3jA767oNfO29cUvxiTu-4" value="" style="rounded=0;whiteSpace=wrap;html=1;fillColor=#dae8fc;strokeColor=#6c8ebf;" vertex="1" parent="WIyWlLk6GJQsqaUBKTNV-1">
          <mxGeometry x="40" y="40" width="680" height="200" as="geometry" />
        </mxCell>
        <mxCell id="qksKBHfO38nD1TasQs_W-0" value="&lt;u style=&quot;&quot;&gt;Graphical Structure&lt;/u&gt;" style="text;html=1;align=left;verticalAlign=middle;whiteSpace=wrap;rounded=0;fontStyle=1" vertex="1" parent="WIyWlLk6GJQsqaUBKTNV-1">
          <mxGeometry x="60" y="40" width="130" height="40" as="geometry" />
        </mxCell>
        <mxCell id="f3jA767oNfO29cUvxiTu-5" value="" style="rounded=0;whiteSpace=wrap;html=1;fillColor=#d5e8d4;strokeColor=#82b366;" vertex="1" parent="WIyWlLk6GJQsqaUBKTNV-1">
          <mxGeometry x="40" y="280" width="680" height="200" as="geometry" />
        </mxCell>
        <mxCell id="f3jA767oNfO29cUvxiTu-6" value="&lt;u&gt;Labels: Dependent Variables&lt;/u&gt;" style="text;html=1;align=left;verticalAlign=middle;whiteSpace=wrap;rounded=0;fontStyle=1" vertex="1" parent="WIyWlLk6GJQsqaUBKTNV-1">
          <mxGeometry x="60" y="280" width="200" height="40" as="geometry" />
        </mxCell>
        <mxCell id="f3jA767oNfO29cUvxiTu-7" value="" style="rounded=0;whiteSpace=wrap;html=1;fillColor=#ffe6cc;strokeColor=#d79b00;" vertex="1" parent="WIyWlLk6GJQsqaUBKTNV-1">
          <mxGeometry x="40" y="520" width="680" height="200" as="geometry" />
        </mxCell>
        <mxCell id="f3jA767oNfO29cUvxiTu-8" value="&lt;u&gt;Features: Independent Variables&lt;/u&gt;" style="text;html=1;align=left;verticalAlign=middle;whiteSpace=wrap;rounded=0;fontStyle=1" vertex="1" parent="WIyWlLk6GJQsqaUBKTNV-1">
          <mxGeometry x="60" y="520" width="200" height="40" as="geometry" />
        </mxCell>
        <mxCell id="f3jA767oNfO29cUvxiTu-10" value="Past 10 Daily Precipitation" style="text;html=1;strokeColor=none;fillColor=none;align=left;verticalAlign=middle;whiteSpace=wrap;rounded=0;fontSize=8;" vertex="1" parent="WIyWlLk6GJQsqaUBKTNV-1">
          <mxGeometry x="60" y="580" width="210" height="10" as="geometry" />
        </mxCell>
        <mxCell id="f3jA767oNfO29cUvxiTu-11" value="Past 10 Daily [Average, Minimum, Maximum] Temperature" style="text;html=1;strokeColor=none;fillColor=none;align=left;verticalAlign=middle;whiteSpace=wrap;rounded=0;fontSize=8;" vertex="1" parent="WIyWlLk6GJQsqaUBKTNV-1">
          <mxGeometry x="60" y="590" width="220" height="15" as="geometry" />
        </mxCell>
      </root>
    </mxGraphModel>
  </diagram>
  <diagram id="SB3dY0E628VASaGIvURN" name="templates">
    <mxGraphModel dx="1418" dy="820" grid="1" gridSize="10" guides="1" tooltips="1" connect="1" arrows="1" fold="1" page="1" pageScale="1" pageWidth="850" pageHeight="1100" math="0" shadow="0">
      <root>
        <mxCell id="0" />
        <mxCell id="1" parent="0" />
        <mxCell id="fVC-7h64p_L4P-U5fZA1-1" value="PERK UP WITH A LATTE" style="shape=table;childLayout=tableLayout;startSize=40;collapsible=0;recursiveResize=0;expand=0;fillColor=none;fontStyle=1" parent="1" vertex="1">
          <mxGeometry x="40" y="40" width="670" height="300" as="geometry" />
        </mxCell>
        <mxCell id="fVC-7h64p_L4P-U5fZA1-2" value="" style="edgeStyle=orthogonalEdgeStyle;rounded=0;orthogonalLoop=1;jettySize=auto;html=1;" parent="fVC-7h64p_L4P-U5fZA1-1" source="fVC-7h64p_L4P-U5fZA1-7" target="fVC-7h64p_L4P-U5fZA1-17" edge="1">
          <mxGeometry relative="1" as="geometry" />
        </mxCell>
        <mxCell id="fVC-7h64p_L4P-U5fZA1-3" value="Customer" style="shape=tableRow;horizontal=0;swimlaneHead=0;swimlaneBody=0;top=0;left=0;bottom=0;right=0;fillColor=none;points=[[0,0.5],[1,0.5]];portConstraint=eastwest;startSize=40;collapsible=0;recursiveResize=0;expand=0;fontStyle=1;" parent="fVC-7h64p_L4P-U5fZA1-1" vertex="1">
          <mxGeometry y="40" width="670" height="180" as="geometry" />
        </mxCell>
        <mxCell id="fVC-7h64p_L4P-U5fZA1-4" value="Feel tired" style="swimlane;swimlaneHead=0;swimlaneBody=0;connectable=0;fillColor=none;startSize=40;collapsible=0;recursiveResize=0;expand=0;fontStyle=1;" parent="fVC-7h64p_L4P-U5fZA1-3" vertex="1">
          <mxGeometry x="40" width="130" height="180" as="geometry">
            <mxRectangle width="130" height="180" as="alternateBounds" />
          </mxGeometry>
        </mxCell>
        <mxCell id="fVC-7h64p_L4P-U5fZA1-5" style="edgeStyle=orthogonalEdgeStyle;rounded=0;orthogonalLoop=1;jettySize=auto;html=1;" parent="fVC-7h64p_L4P-U5fZA1-4" source="fVC-7h64p_L4P-U5fZA1-6" target="fVC-7h64p_L4P-U5fZA1-7" edge="1">
          <mxGeometry relative="1" as="geometry" />
        </mxCell>
        <mxCell id="fVC-7h64p_L4P-U5fZA1-6" value="Start" style="rounded=1;whiteSpace=wrap;html=1;arcSize=50;" parent="fVC-7h64p_L4P-U5fZA1-4" vertex="1">
          <mxGeometry x="20" y="60" width="90" height="40" as="geometry" />
        </mxCell>
        <mxCell id="fVC-7h64p_L4P-U5fZA1-7" value="Find barista" style="rounded=0;whiteSpace=wrap;html=1;" parent="fVC-7h64p_L4P-U5fZA1-4" vertex="1">
          <mxGeometry x="20" y="120" width="90" height="40" as="geometry" />
        </mxCell>
        <mxCell id="fVC-7h64p_L4P-U5fZA1-8" value="Make transaction" style="swimlane;swimlaneHead=0;swimlaneBody=0;connectable=0;fillColor=none;startSize=40;collapsible=0;recursiveResize=0;expand=0;fontStyle=1;" parent="fVC-7h64p_L4P-U5fZA1-3" vertex="1">
          <mxGeometry x="170" width="370" height="180" as="geometry">
            <mxRectangle width="370" height="180" as="alternateBounds" />
          </mxGeometry>
        </mxCell>
        <mxCell id="fVC-7h64p_L4P-U5fZA1-9" value="Request latte" style="rounded=0;whiteSpace=wrap;html=1;" parent="fVC-7h64p_L4P-U5fZA1-8" vertex="1">
          <mxGeometry x="20" y="120" width="90" height="40" as="geometry" />
        </mxCell>
        <mxCell id="fVC-7h64p_L4P-U5fZA1-10" value="Buy latte" style="rounded=0;whiteSpace=wrap;html=1;" parent="fVC-7h64p_L4P-U5fZA1-8" vertex="1">
          <mxGeometry x="150" y="120" width="90" height="40" as="geometry" />
        </mxCell>
        <mxCell id="fVC-7h64p_L4P-U5fZA1-11" value="Feel perky" style="swimlane;swimlaneHead=0;swimlaneBody=0;connectable=0;fillColor=none;startSize=40;collapsible=0;recursiveResize=0;expand=0;fontStyle=1;" parent="fVC-7h64p_L4P-U5fZA1-3" vertex="1">
          <mxGeometry x="540" width="130" height="180" as="geometry">
            <mxRectangle width="130" height="180" as="alternateBounds" />
          </mxGeometry>
        </mxCell>
        <mxCell id="fVC-7h64p_L4P-U5fZA1-12" style="edgeStyle=orthogonalEdgeStyle;rounded=0;orthogonalLoop=1;jettySize=auto;html=1;" parent="fVC-7h64p_L4P-U5fZA1-11" source="fVC-7h64p_L4P-U5fZA1-13" target="fVC-7h64p_L4P-U5fZA1-14" edge="1">
          <mxGeometry relative="1" as="geometry" />
        </mxCell>
        <mxCell id="fVC-7h64p_L4P-U5fZA1-13" value="Drink latte" style="rounded=0;whiteSpace=wrap;html=1;" parent="fVC-7h64p_L4P-U5fZA1-11" vertex="1">
          <mxGeometry x="20" y="60" width="90" height="40" as="geometry" />
        </mxCell>
        <mxCell id="fVC-7h64p_L4P-U5fZA1-14" value="End" style="rounded=1;whiteSpace=wrap;html=1;arcSize=50;" parent="fVC-7h64p_L4P-U5fZA1-11" vertex="1">
          <mxGeometry x="20" y="120" width="90" height="40" as="geometry" />
        </mxCell>
        <mxCell id="fVC-7h64p_L4P-U5fZA1-15" value="Barista" style="shape=tableRow;horizontal=0;swimlaneHead=0;swimlaneBody=0;top=0;left=0;bottom=0;right=0;fillColor=none;points=[[0,0.5],[1,0.5]];portConstraint=eastwest;startSize=40;collapsible=0;recursiveResize=0;expand=0;fontStyle=1;" parent="fVC-7h64p_L4P-U5fZA1-1" vertex="1">
          <mxGeometry y="220" width="670" height="80" as="geometry" />
        </mxCell>
        <mxCell id="fVC-7h64p_L4P-U5fZA1-16" value="" style="swimlane;swimlaneHead=0;swimlaneBody=0;connectable=0;fillColor=none;startSize=0;collapsible=0;recursiveResize=0;expand=0;fontStyle=1;" parent="fVC-7h64p_L4P-U5fZA1-15" vertex="1">
          <mxGeometry x="40" width="130" height="80" as="geometry">
            <mxRectangle width="130" height="80" as="alternateBounds" />
          </mxGeometry>
        </mxCell>
        <mxCell id="fVC-7h64p_L4P-U5fZA1-17" value="Greet customer" style="rounded=0;whiteSpace=wrap;html=1;" parent="fVC-7h64p_L4P-U5fZA1-16" vertex="1">
          <mxGeometry x="20" y="20" width="90" height="40" as="geometry" />
        </mxCell>
        <mxCell id="fVC-7h64p_L4P-U5fZA1-18" value="" style="swimlane;swimlaneHead=0;swimlaneBody=0;connectable=0;fillColor=none;startSize=0;collapsible=0;recursiveResize=0;expand=0;fontStyle=1;" parent="fVC-7h64p_L4P-U5fZA1-15" vertex="1">
          <mxGeometry x="170" width="370" height="80" as="geometry">
            <mxRectangle width="370" height="80" as="alternateBounds" />
          </mxGeometry>
        </mxCell>
        <mxCell id="fVC-7h64p_L4P-U5fZA1-19" value="" style="edgeStyle=orthogonalEdgeStyle;rounded=0;orthogonalLoop=1;jettySize=auto;html=1;" parent="fVC-7h64p_L4P-U5fZA1-18" source="fVC-7h64p_L4P-U5fZA1-20" target="fVC-7h64p_L4P-U5fZA1-22" edge="1">
          <mxGeometry relative="1" as="geometry" />
        </mxCell>
        <mxCell id="fVC-7h64p_L4P-U5fZA1-20" value="Accept&lt;br&gt;payment" style="rounded=0;whiteSpace=wrap;html=1;" parent="fVC-7h64p_L4P-U5fZA1-18" vertex="1">
          <mxGeometry x="150" y="20" width="90" height="40" as="geometry" />
        </mxCell>
        <mxCell id="fVC-7h64p_L4P-U5fZA1-21" value="Write details&lt;br&gt;on cup" style="shape=document;whiteSpace=wrap;html=1;boundedLbl=1;" parent="fVC-7h64p_L4P-U5fZA1-18" vertex="1">
          <mxGeometry x="20" y="10" width="90" height="60" as="geometry" />
        </mxCell>
        <mxCell id="fVC-7h64p_L4P-U5fZA1-22" value="Make latte" style="shape=process;whiteSpace=wrap;html=1;backgroundOutline=1;" parent="fVC-7h64p_L4P-U5fZA1-18" vertex="1">
          <mxGeometry x="260" y="20" width="90" height="40" as="geometry" />
        </mxCell>
        <mxCell id="fVC-7h64p_L4P-U5fZA1-23" value="" style="swimlane;swimlaneHead=0;swimlaneBody=0;connectable=0;fillColor=none;startSize=0;collapsible=0;recursiveResize=0;expand=0;fontStyle=1;" parent="fVC-7h64p_L4P-U5fZA1-15" vertex="1">
          <mxGeometry x="540" width="130" height="80" as="geometry">
            <mxRectangle width="130" height="80" as="alternateBounds" />
          </mxGeometry>
        </mxCell>
        <mxCell id="fVC-7h64p_L4P-U5fZA1-24" value="" style="edgeStyle=orthogonalEdgeStyle;rounded=0;orthogonalLoop=1;jettySize=auto;html=1;" parent="fVC-7h64p_L4P-U5fZA1-1" source="fVC-7h64p_L4P-U5fZA1-17" target="fVC-7h64p_L4P-U5fZA1-9" edge="1">
          <mxGeometry relative="1" as="geometry">
            <Array as="points">
              <mxPoint x="160" y="260" />
              <mxPoint x="160" y="180" />
            </Array>
          </mxGeometry>
        </mxCell>
        <mxCell id="fVC-7h64p_L4P-U5fZA1-25" value="" style="edgeStyle=orthogonalEdgeStyle;rounded=0;orthogonalLoop=1;jettySize=auto;html=1;" parent="fVC-7h64p_L4P-U5fZA1-1" source="fVC-7h64p_L4P-U5fZA1-9" target="fVC-7h64p_L4P-U5fZA1-21" edge="1">
          <mxGeometry relative="1" as="geometry" />
        </mxCell>
        <mxCell id="fVC-7h64p_L4P-U5fZA1-26" value="" style="edgeStyle=orthogonalEdgeStyle;rounded=0;orthogonalLoop=1;jettySize=auto;html=1;" parent="fVC-7h64p_L4P-U5fZA1-1" source="fVC-7h64p_L4P-U5fZA1-21" target="fVC-7h64p_L4P-U5fZA1-10" edge="1">
          <mxGeometry relative="1" as="geometry">
            <Array as="points">
              <mxPoint x="300" y="260" />
              <mxPoint x="300" y="180" />
            </Array>
          </mxGeometry>
        </mxCell>
        <mxCell id="fVC-7h64p_L4P-U5fZA1-27" value="" style="edgeStyle=orthogonalEdgeStyle;rounded=0;orthogonalLoop=1;jettySize=auto;html=1;" parent="fVC-7h64p_L4P-U5fZA1-1" source="fVC-7h64p_L4P-U5fZA1-10" target="fVC-7h64p_L4P-U5fZA1-20" edge="1">
          <mxGeometry relative="1" as="geometry" />
        </mxCell>
        <mxCell id="fVC-7h64p_L4P-U5fZA1-28" style="edgeStyle=orthogonalEdgeStyle;rounded=0;orthogonalLoop=1;jettySize=auto;html=1;" parent="fVC-7h64p_L4P-U5fZA1-1" source="fVC-7h64p_L4P-U5fZA1-22" target="fVC-7h64p_L4P-U5fZA1-13" edge="1">
          <mxGeometry relative="1" as="geometry">
            <Array as="points">
              <mxPoint x="530" y="260" />
              <mxPoint x="530" y="120" />
            </Array>
          </mxGeometry>
        </mxCell>
        <mxCell id="fVC-7h64p_L4P-U5fZA1-29" value="Person" style="swimlane;fontStyle=2;align=center;verticalAlign=top;childLayout=stackLayout;horizontal=1;startSize=26;horizontalStack=0;resizeParent=1;resizeLast=0;collapsible=1;marginBottom=0;rounded=0;shadow=0;strokeWidth=1;" parent="1" vertex="1">
          <mxGeometry x="140" y="500" width="160" height="138" as="geometry">
            <mxRectangle x="230" y="140" width="160" height="26" as="alternateBounds" />
          </mxGeometry>
        </mxCell>
        <mxCell id="fVC-7h64p_L4P-U5fZA1-30" value="Name" style="text;align=left;verticalAlign=top;spacingLeft=4;spacingRight=4;overflow=hidden;rotatable=0;points=[[0,0.5],[1,0.5]];portConstraint=eastwest;" parent="fVC-7h64p_L4P-U5fZA1-29" vertex="1">
          <mxGeometry y="26" width="160" height="26" as="geometry" />
        </mxCell>
        <mxCell id="fVC-7h64p_L4P-U5fZA1-31" value="Phone Number" style="text;align=left;verticalAlign=top;spacingLeft=4;spacingRight=4;overflow=hidden;rotatable=0;points=[[0,0.5],[1,0.5]];portConstraint=eastwest;rounded=0;shadow=0;html=0;" parent="fVC-7h64p_L4P-U5fZA1-29" vertex="1">
          <mxGeometry y="52" width="160" height="26" as="geometry" />
        </mxCell>
        <mxCell id="fVC-7h64p_L4P-U5fZA1-32" value="Email Address" style="text;align=left;verticalAlign=top;spacingLeft=4;spacingRight=4;overflow=hidden;rotatable=0;points=[[0,0.5],[1,0.5]];portConstraint=eastwest;rounded=0;shadow=0;html=0;" parent="fVC-7h64p_L4P-U5fZA1-29" vertex="1">
          <mxGeometry y="78" width="160" height="26" as="geometry" />
        </mxCell>
        <mxCell id="fVC-7h64p_L4P-U5fZA1-33" value="" style="line;html=1;strokeWidth=1;align=left;verticalAlign=middle;spacingTop=-1;spacingLeft=3;spacingRight=3;rotatable=0;labelPosition=right;points=[];portConstraint=eastwest;" parent="fVC-7h64p_L4P-U5fZA1-29" vertex="1">
          <mxGeometry y="104" width="160" height="8" as="geometry" />
        </mxCell>
        <mxCell id="fVC-7h64p_L4P-U5fZA1-34" value="Purchase Parking Pass" style="text;align=left;verticalAlign=top;spacingLeft=4;spacingRight=4;overflow=hidden;rotatable=0;points=[[0,0.5],[1,0.5]];portConstraint=eastwest;" parent="fVC-7h64p_L4P-U5fZA1-29" vertex="1">
          <mxGeometry y="112" width="160" height="26" as="geometry" />
        </mxCell>
        <mxCell id="fVC-7h64p_L4P-U5fZA1-35" value="Student" style="swimlane;fontStyle=0;align=center;verticalAlign=top;childLayout=stackLayout;horizontal=1;startSize=26;horizontalStack=0;resizeParent=1;resizeLast=0;collapsible=1;marginBottom=0;rounded=0;shadow=0;strokeWidth=1;" parent="1" vertex="1">
          <mxGeometry x="40" y="740" width="160" height="138" as="geometry">
            <mxRectangle x="130" y="380" width="160" height="26" as="alternateBounds" />
          </mxGeometry>
        </mxCell>
        <mxCell id="fVC-7h64p_L4P-U5fZA1-36" value="Student Number" style="text;align=left;verticalAlign=top;spacingLeft=4;spacingRight=4;overflow=hidden;rotatable=0;points=[[0,0.5],[1,0.5]];portConstraint=eastwest;" parent="fVC-7h64p_L4P-U5fZA1-35" vertex="1">
          <mxGeometry y="26" width="160" height="26" as="geometry" />
        </mxCell>
        <mxCell id="fVC-7h64p_L4P-U5fZA1-37" value="Average Mark" style="text;align=left;verticalAlign=top;spacingLeft=4;spacingRight=4;overflow=hidden;rotatable=0;points=[[0,0.5],[1,0.5]];portConstraint=eastwest;rounded=0;shadow=0;html=0;" parent="fVC-7h64p_L4P-U5fZA1-35" vertex="1">
          <mxGeometry y="52" width="160" height="26" as="geometry" />
        </mxCell>
        <mxCell id="fVC-7h64p_L4P-U5fZA1-38" value="" style="line;html=1;strokeWidth=1;align=left;verticalAlign=middle;spacingTop=-1;spacingLeft=3;spacingRight=3;rotatable=0;labelPosition=right;points=[];portConstraint=eastwest;" parent="fVC-7h64p_L4P-U5fZA1-35" vertex="1">
          <mxGeometry y="78" width="160" height="8" as="geometry" />
        </mxCell>
        <mxCell id="fVC-7h64p_L4P-U5fZA1-39" value="Is Eligible To Enroll" style="text;align=left;verticalAlign=top;spacingLeft=4;spacingRight=4;overflow=hidden;rotatable=0;points=[[0,0.5],[1,0.5]];portConstraint=eastwest;fontStyle=4" parent="fVC-7h64p_L4P-U5fZA1-35" vertex="1">
          <mxGeometry y="86" width="160" height="26" as="geometry" />
        </mxCell>
        <mxCell id="fVC-7h64p_L4P-U5fZA1-40" value="Get Seminars Taken" style="text;align=left;verticalAlign=top;spacingLeft=4;spacingRight=4;overflow=hidden;rotatable=0;points=[[0,0.5],[1,0.5]];portConstraint=eastwest;" parent="fVC-7h64p_L4P-U5fZA1-35" vertex="1">
          <mxGeometry y="112" width="160" height="26" as="geometry" />
        </mxCell>
        <mxCell id="fVC-7h64p_L4P-U5fZA1-41" value="" style="endArrow=block;endSize=10;endFill=0;shadow=0;strokeWidth=1;rounded=0;edgeStyle=elbowEdgeStyle;elbow=vertical;" parent="1" source="fVC-7h64p_L4P-U5fZA1-35" target="fVC-7h64p_L4P-U5fZA1-29" edge="1">
          <mxGeometry width="160" relative="1" as="geometry">
            <mxPoint x="120" y="583" as="sourcePoint" />
            <mxPoint x="120" y="583" as="targetPoint" />
          </mxGeometry>
        </mxCell>
        <mxCell id="fVC-7h64p_L4P-U5fZA1-42" value="Professor" style="swimlane;fontStyle=0;align=center;verticalAlign=top;childLayout=stackLayout;horizontal=1;startSize=26;horizontalStack=0;resizeParent=1;resizeLast=0;collapsible=1;marginBottom=0;rounded=0;shadow=0;strokeWidth=1;" parent="1" vertex="1">
          <mxGeometry x="250" y="740" width="160" height="70" as="geometry">
            <mxRectangle x="340" y="380" width="170" height="26" as="alternateBounds" />
          </mxGeometry>
        </mxCell>
        <mxCell id="fVC-7h64p_L4P-U5fZA1-43" value="Salary" style="text;align=left;verticalAlign=top;spacingLeft=4;spacingRight=4;overflow=hidden;rotatable=0;points=[[0,0.5],[1,0.5]];portConstraint=eastwest;" parent="fVC-7h64p_L4P-U5fZA1-42" vertex="1">
          <mxGeometry y="26" width="160" height="26" as="geometry" />
        </mxCell>
        <mxCell id="fVC-7h64p_L4P-U5fZA1-44" value="" style="line;html=1;strokeWidth=1;align=left;verticalAlign=middle;spacingTop=-1;spacingLeft=3;spacingRight=3;rotatable=0;labelPosition=right;points=[];portConstraint=eastwest;" parent="fVC-7h64p_L4P-U5fZA1-42" vertex="1">
          <mxGeometry y="52" width="160" height="8" as="geometry" />
        </mxCell>
        <mxCell id="fVC-7h64p_L4P-U5fZA1-45" value="" style="endArrow=block;endSize=10;endFill=0;shadow=0;strokeWidth=1;rounded=0;edgeStyle=elbowEdgeStyle;elbow=vertical;" parent="1" source="fVC-7h64p_L4P-U5fZA1-42" target="fVC-7h64p_L4P-U5fZA1-29" edge="1">
          <mxGeometry width="160" relative="1" as="geometry">
            <mxPoint x="130" y="753" as="sourcePoint" />
            <mxPoint x="230" y="651" as="targetPoint" />
          </mxGeometry>
        </mxCell>
        <mxCell id="fVC-7h64p_L4P-U5fZA1-46" value="Address" style="swimlane;fontStyle=0;align=center;verticalAlign=top;childLayout=stackLayout;horizontal=1;startSize=26;horizontalStack=0;resizeParent=1;resizeLast=0;collapsible=1;marginBottom=0;rounded=0;shadow=0;strokeWidth=1;" parent="1" vertex="1">
          <mxGeometry x="428" y="500" width="160" height="216" as="geometry">
            <mxRectangle x="550" y="140" width="160" height="26" as="alternateBounds" />
          </mxGeometry>
        </mxCell>
        <mxCell id="fVC-7h64p_L4P-U5fZA1-47" value="Street" style="text;align=left;verticalAlign=top;spacingLeft=4;spacingRight=4;overflow=hidden;rotatable=0;points=[[0,0.5],[1,0.5]];portConstraint=eastwest;" parent="fVC-7h64p_L4P-U5fZA1-46" vertex="1">
          <mxGeometry y="26" width="160" height="26" as="geometry" />
        </mxCell>
        <mxCell id="fVC-7h64p_L4P-U5fZA1-48" value="City" style="text;align=left;verticalAlign=top;spacingLeft=4;spacingRight=4;overflow=hidden;rotatable=0;points=[[0,0.5],[1,0.5]];portConstraint=eastwest;rounded=0;shadow=0;html=0;" parent="fVC-7h64p_L4P-U5fZA1-46" vertex="1">
          <mxGeometry y="52" width="160" height="26" as="geometry" />
        </mxCell>
        <mxCell id="fVC-7h64p_L4P-U5fZA1-49" value="State" style="text;align=left;verticalAlign=top;spacingLeft=4;spacingRight=4;overflow=hidden;rotatable=0;points=[[0,0.5],[1,0.5]];portConstraint=eastwest;rounded=0;shadow=0;html=0;" parent="fVC-7h64p_L4P-U5fZA1-46" vertex="1">
          <mxGeometry y="78" width="160" height="26" as="geometry" />
        </mxCell>
        <mxCell id="fVC-7h64p_L4P-U5fZA1-50" value="Postal Code" style="text;align=left;verticalAlign=top;spacingLeft=4;spacingRight=4;overflow=hidden;rotatable=0;points=[[0,0.5],[1,0.5]];portConstraint=eastwest;rounded=0;shadow=0;html=0;" parent="fVC-7h64p_L4P-U5fZA1-46" vertex="1">
          <mxGeometry y="104" width="160" height="26" as="geometry" />
        </mxCell>
        <mxCell id="fVC-7h64p_L4P-U5fZA1-51" value="Country" style="text;align=left;verticalAlign=top;spacingLeft=4;spacingRight=4;overflow=hidden;rotatable=0;points=[[0,0.5],[1,0.5]];portConstraint=eastwest;rounded=0;shadow=0;html=0;" parent="fVC-7h64p_L4P-U5fZA1-46" vertex="1">
          <mxGeometry y="130" width="160" height="26" as="geometry" />
        </mxCell>
        <mxCell id="fVC-7h64p_L4P-U5fZA1-52" value="" style="line;html=1;strokeWidth=1;align=left;verticalAlign=middle;spacingTop=-1;spacingLeft=3;spacingRight=3;rotatable=0;labelPosition=right;points=[];portConstraint=eastwest;" parent="fVC-7h64p_L4P-U5fZA1-46" vertex="1">
          <mxGeometry y="156" width="160" height="8" as="geometry" />
        </mxCell>
        <mxCell id="fVC-7h64p_L4P-U5fZA1-53" value="Validate" style="text;align=left;verticalAlign=top;spacingLeft=4;spacingRight=4;overflow=hidden;rotatable=0;points=[[0,0.5],[1,0.5]];portConstraint=eastwest;" parent="fVC-7h64p_L4P-U5fZA1-46" vertex="1">
          <mxGeometry y="164" width="160" height="26" as="geometry" />
        </mxCell>
        <mxCell id="fVC-7h64p_L4P-U5fZA1-54" value="Output As Label" style="text;align=left;verticalAlign=top;spacingLeft=4;spacingRight=4;overflow=hidden;rotatable=0;points=[[0,0.5],[1,0.5]];portConstraint=eastwest;" parent="fVC-7h64p_L4P-U5fZA1-46" vertex="1">
          <mxGeometry y="190" width="160" height="26" as="geometry" />
        </mxCell>
        <mxCell id="fVC-7h64p_L4P-U5fZA1-55" value="" style="endArrow=open;shadow=0;strokeWidth=1;rounded=0;endFill=1;edgeStyle=elbowEdgeStyle;elbow=vertical;" parent="1" source="fVC-7h64p_L4P-U5fZA1-29" target="fVC-7h64p_L4P-U5fZA1-46" edge="1">
          <mxGeometry x="0.5" y="41" relative="1" as="geometry">
            <mxPoint x="300" y="572" as="sourcePoint" />
            <mxPoint x="460" y="572" as="targetPoint" />
            <mxPoint x="-40" y="32" as="offset" />
          </mxGeometry>
        </mxCell>
        <mxCell id="fVC-7h64p_L4P-U5fZA1-56" value="0..1" style="resizable=0;align=left;verticalAlign=bottom;labelBackgroundColor=none;fontSize=12;" parent="fVC-7h64p_L4P-U5fZA1-55" connectable="0" vertex="1">
          <mxGeometry x="-1" relative="1" as="geometry">
            <mxPoint y="4" as="offset" />
          </mxGeometry>
        </mxCell>
        <mxCell id="fVC-7h64p_L4P-U5fZA1-57" value="1" style="resizable=0;align=right;verticalAlign=bottom;labelBackgroundColor=none;fontSize=12;" parent="fVC-7h64p_L4P-U5fZA1-55" connectable="0" vertex="1">
          <mxGeometry x="1" relative="1" as="geometry">
            <mxPoint x="-7" y="4" as="offset" />
          </mxGeometry>
        </mxCell>
        <mxCell id="fVC-7h64p_L4P-U5fZA1-58" value="lives at" style="text;html=1;resizable=0;points=[];;align=center;verticalAlign=middle;labelBackgroundColor=none;rounded=0;shadow=0;strokeWidth=1;fontSize=12;" parent="fVC-7h64p_L4P-U5fZA1-55" vertex="1" connectable="0">
          <mxGeometry x="0.5" y="49" relative="1" as="geometry">
            <mxPoint x="-38" y="40" as="offset" />
          </mxGeometry>
        </mxCell>
        <mxCell id="fVC-7h64p_L4P-U5fZA1-59" value="" style="rounded=0;html=1;jettySize=auto;orthogonalLoop=1;fontSize=11;endArrow=block;endFill=0;endSize=8;strokeWidth=1;shadow=0;labelBackgroundColor=none;edgeStyle=orthogonalEdgeStyle;" parent="1" source="fVC-7h64p_L4P-U5fZA1-60" target="fVC-7h64p_L4P-U5fZA1-63" edge="1">
          <mxGeometry relative="1" as="geometry" />
        </mxCell>
        <mxCell id="fVC-7h64p_L4P-U5fZA1-60" value="Lamp doesn&#39;t work" style="rounded=1;whiteSpace=wrap;html=1;fontSize=12;glass=0;strokeWidth=1;shadow=0;" parent="1" vertex="1">
          <mxGeometry x="820" y="40" width="120" height="40" as="geometry" />
        </mxCell>
        <mxCell id="fVC-7h64p_L4P-U5fZA1-61" value="Yes" style="rounded=0;html=1;jettySize=auto;orthogonalLoop=1;fontSize=11;endArrow=block;endFill=0;endSize=8;strokeWidth=1;shadow=0;labelBackgroundColor=none;edgeStyle=orthogonalEdgeStyle;" parent="1" source="fVC-7h64p_L4P-U5fZA1-63" target="fVC-7h64p_L4P-U5fZA1-67" edge="1">
          <mxGeometry y="20" relative="1" as="geometry">
            <mxPoint as="offset" />
          </mxGeometry>
        </mxCell>
        <mxCell id="fVC-7h64p_L4P-U5fZA1-62" value="No" style="edgeStyle=orthogonalEdgeStyle;rounded=0;html=1;jettySize=auto;orthogonalLoop=1;fontSize=11;endArrow=block;endFill=0;endSize=8;strokeWidth=1;shadow=0;labelBackgroundColor=none;" parent="1" source="fVC-7h64p_L4P-U5fZA1-63" target="fVC-7h64p_L4P-U5fZA1-64" edge="1">
          <mxGeometry y="10" relative="1" as="geometry">
            <mxPoint as="offset" />
          </mxGeometry>
        </mxCell>
        <mxCell id="fVC-7h64p_L4P-U5fZA1-63" value="Lamp&lt;br&gt;plugged in?" style="rhombus;whiteSpace=wrap;html=1;shadow=0;fontFamily=Helvetica;fontSize=12;align=center;strokeWidth=1;spacing=6;spacingTop=-4;" parent="1" vertex="1">
          <mxGeometry x="830" y="130" width="100" height="80" as="geometry" />
        </mxCell>
        <mxCell id="fVC-7h64p_L4P-U5fZA1-64" value="Plug in lamp" style="rounded=1;whiteSpace=wrap;html=1;fontSize=12;glass=0;strokeWidth=1;shadow=0;" parent="1" vertex="1">
          <mxGeometry x="980" y="150" width="120" height="40" as="geometry" />
        </mxCell>
        <mxCell id="fVC-7h64p_L4P-U5fZA1-65" value="No" style="rounded=0;html=1;jettySize=auto;orthogonalLoop=1;fontSize=11;endArrow=block;endFill=0;endSize=8;strokeWidth=1;shadow=0;labelBackgroundColor=none;edgeStyle=orthogonalEdgeStyle;" parent="1" source="fVC-7h64p_L4P-U5fZA1-67" target="fVC-7h64p_L4P-U5fZA1-68" edge="1">
          <mxGeometry x="0.3333" y="20" relative="1" as="geometry">
            <mxPoint as="offset" />
          </mxGeometry>
        </mxCell>
        <mxCell id="fVC-7h64p_L4P-U5fZA1-66" value="Yes" style="edgeStyle=orthogonalEdgeStyle;rounded=0;html=1;jettySize=auto;orthogonalLoop=1;fontSize=11;endArrow=block;endFill=0;endSize=8;strokeWidth=1;shadow=0;labelBackgroundColor=none;" parent="1" source="fVC-7h64p_L4P-U5fZA1-67" target="fVC-7h64p_L4P-U5fZA1-69" edge="1">
          <mxGeometry y="10" relative="1" as="geometry">
            <mxPoint as="offset" />
          </mxGeometry>
        </mxCell>
        <mxCell id="fVC-7h64p_L4P-U5fZA1-67" value="Bulb&lt;br&gt;burned out?" style="rhombus;whiteSpace=wrap;html=1;shadow=0;fontFamily=Helvetica;fontSize=12;align=center;strokeWidth=1;spacing=6;spacingTop=-4;" parent="1" vertex="1">
          <mxGeometry x="830" y="250" width="100" height="80" as="geometry" />
        </mxCell>
        <mxCell id="fVC-7h64p_L4P-U5fZA1-68" value="Repair Lamp" style="rounded=1;whiteSpace=wrap;html=1;fontSize=12;glass=0;strokeWidth=1;shadow=0;" parent="1" vertex="1">
          <mxGeometry x="820" y="390" width="120" height="40" as="geometry" />
        </mxCell>
        <mxCell id="fVC-7h64p_L4P-U5fZA1-69" value="Replace Bulb" style="rounded=1;whiteSpace=wrap;html=1;fontSize=12;glass=0;strokeWidth=1;shadow=0;" parent="1" vertex="1">
          <mxGeometry x="980" y="270" width="120" height="40" as="geometry" />
        </mxCell>
        <mxCell id="fVC-7h64p_L4P-U5fZA1-99" value="" style="edgeStyle=entityRelationEdgeStyle;endArrow=ERzeroToMany;startArrow=ERone;endFill=1;startFill=0;" parent="1" source="fVC-7h64p_L4P-U5fZA1-122" target="fVC-7h64p_L4P-U5fZA1-105" edge="1">
          <mxGeometry width="100" height="100" relative="1" as="geometry">
            <mxPoint x="1040" y="1100" as="sourcePoint" />
            <mxPoint x="1140" y="1000" as="targetPoint" />
          </mxGeometry>
        </mxCell>
        <mxCell id="fVC-7h64p_L4P-U5fZA1-100" value="" style="edgeStyle=entityRelationEdgeStyle;endArrow=ERzeroToMany;startArrow=ERone;endFill=1;startFill=0;" parent="1" source="fVC-7h64p_L4P-U5fZA1-102" target="fVC-7h64p_L4P-U5fZA1-115" edge="1">
          <mxGeometry width="100" height="100" relative="1" as="geometry">
            <mxPoint x="1100" y="560" as="sourcePoint" />
            <mxPoint x="1160" y="585" as="targetPoint" />
          </mxGeometry>
        </mxCell>
        <mxCell id="fVC-7h64p_L4P-U5fZA1-101" value="Orders" style="shape=table;startSize=30;container=1;collapsible=1;childLayout=tableLayout;fixedRows=1;rowLines=0;fontStyle=1;align=center;resizeLast=1;" parent="1" vertex="1">
          <mxGeometry x="1150" y="500" width="250" height="130" as="geometry" />
        </mxCell>
        <mxCell id="fVC-7h64p_L4P-U5fZA1-102" value="" style="shape=partialRectangle;collapsible=0;dropTarget=0;pointerEvents=0;fillColor=none;points=[[0,0.5],[1,0.5]];portConstraint=eastwest;top=0;left=0;right=0;bottom=1;" parent="fVC-7h64p_L4P-U5fZA1-101" vertex="1">
          <mxGeometry y="30" width="250" height="30" as="geometry" />
        </mxCell>
        <mxCell id="fVC-7h64p_L4P-U5fZA1-103" value="PK" style="shape=partialRectangle;overflow=hidden;connectable=0;fillColor=none;top=0;left=0;bottom=0;right=0;fontStyle=1;" parent="fVC-7h64p_L4P-U5fZA1-102" vertex="1">
          <mxGeometry width="30" height="30" as="geometry">
            <mxRectangle width="30" height="30" as="alternateBounds" />
          </mxGeometry>
        </mxCell>
        <mxCell id="fVC-7h64p_L4P-U5fZA1-104" value="order_id int NOT NULL " style="shape=partialRectangle;overflow=hidden;connectable=0;fillColor=none;top=0;left=0;bottom=0;right=0;align=left;spacingLeft=6;fontStyle=5;" parent="fVC-7h64p_L4P-U5fZA1-102" vertex="1">
          <mxGeometry x="30" width="220" height="30" as="geometry">
            <mxRectangle width="220" height="30" as="alternateBounds" />
          </mxGeometry>
        </mxCell>
        <mxCell id="fVC-7h64p_L4P-U5fZA1-105" value="" style="shape=partialRectangle;collapsible=0;dropTarget=0;pointerEvents=0;fillColor=none;points=[[0,0.5],[1,0.5]];portConstraint=eastwest;top=0;left=0;right=0;bottom=0;" parent="fVC-7h64p_L4P-U5fZA1-101" vertex="1">
          <mxGeometry y="60" width="250" height="30" as="geometry" />
        </mxCell>
        <mxCell id="fVC-7h64p_L4P-U5fZA1-106" value="FK1" style="shape=partialRectangle;overflow=hidden;connectable=0;fillColor=none;top=0;left=0;bottom=0;right=0;" parent="fVC-7h64p_L4P-U5fZA1-105" vertex="1">
          <mxGeometry width="30" height="30" as="geometry">
            <mxRectangle width="30" height="30" as="alternateBounds" />
          </mxGeometry>
        </mxCell>
        <mxCell id="fVC-7h64p_L4P-U5fZA1-107" value="customer_id int NOT NULL" style="shape=partialRectangle;overflow=hidden;connectable=0;fillColor=none;top=0;left=0;bottom=0;right=0;align=left;spacingLeft=6;" parent="fVC-7h64p_L4P-U5fZA1-105" vertex="1">
          <mxGeometry x="30" width="220" height="30" as="geometry">
            <mxRectangle width="220" height="30" as="alternateBounds" />
          </mxGeometry>
        </mxCell>
        <mxCell id="fVC-7h64p_L4P-U5fZA1-108" value="" style="shape=partialRectangle;collapsible=0;dropTarget=0;pointerEvents=0;fillColor=none;points=[[0,0.5],[1,0.5]];portConstraint=eastwest;top=0;left=0;right=0;bottom=0;" parent="fVC-7h64p_L4P-U5fZA1-101" vertex="1">
          <mxGeometry y="90" width="250" height="30" as="geometry" />
        </mxCell>
        <mxCell id="fVC-7h64p_L4P-U5fZA1-109" value="" style="shape=partialRectangle;overflow=hidden;connectable=0;fillColor=none;top=0;left=0;bottom=0;right=0;" parent="fVC-7h64p_L4P-U5fZA1-108" vertex="1">
          <mxGeometry width="30" height="30" as="geometry">
            <mxRectangle width="30" height="30" as="alternateBounds" />
          </mxGeometry>
        </mxCell>
        <mxCell id="fVC-7h64p_L4P-U5fZA1-110" value="order_date date NOT NULL" style="shape=partialRectangle;overflow=hidden;connectable=0;fillColor=none;top=0;left=0;bottom=0;right=0;align=left;spacingLeft=6;" parent="fVC-7h64p_L4P-U5fZA1-108" vertex="1">
          <mxGeometry x="30" width="220" height="30" as="geometry">
            <mxRectangle width="220" height="30" as="alternateBounds" />
          </mxGeometry>
        </mxCell>
        <mxCell id="fVC-7h64p_L4P-U5fZA1-111" value="Shipments" style="shape=table;startSize=30;container=1;collapsible=1;childLayout=tableLayout;fixedRows=1;rowLines=0;fontStyle=1;align=center;resizeLast=1;" parent="1" vertex="1">
          <mxGeometry x="1150" y="660" width="250" height="130" as="geometry" />
        </mxCell>
        <mxCell id="fVC-7h64p_L4P-U5fZA1-112" value="" style="shape=partialRectangle;collapsible=0;dropTarget=0;pointerEvents=0;fillColor=none;points=[[0,0.5],[1,0.5]];portConstraint=eastwest;top=0;left=0;right=0;bottom=1;" parent="fVC-7h64p_L4P-U5fZA1-111" vertex="1">
          <mxGeometry y="30" width="250" height="30" as="geometry" />
        </mxCell>
        <mxCell id="fVC-7h64p_L4P-U5fZA1-113" value="PK" style="shape=partialRectangle;overflow=hidden;connectable=0;fillColor=none;top=0;left=0;bottom=0;right=0;fontStyle=1;" parent="fVC-7h64p_L4P-U5fZA1-112" vertex="1">
          <mxGeometry width="30" height="30" as="geometry">
            <mxRectangle width="30" height="30" as="alternateBounds" />
          </mxGeometry>
        </mxCell>
        <mxCell id="fVC-7h64p_L4P-U5fZA1-114" value="shipment_id int NOT NULL " style="shape=partialRectangle;overflow=hidden;connectable=0;fillColor=none;top=0;left=0;bottom=0;right=0;align=left;spacingLeft=6;fontStyle=5;" parent="fVC-7h64p_L4P-U5fZA1-112" vertex="1">
          <mxGeometry x="30" width="220" height="30" as="geometry">
            <mxRectangle width="220" height="30" as="alternateBounds" />
          </mxGeometry>
        </mxCell>
        <mxCell id="fVC-7h64p_L4P-U5fZA1-115" value="" style="shape=partialRectangle;collapsible=0;dropTarget=0;pointerEvents=0;fillColor=none;points=[[0,0.5],[1,0.5]];portConstraint=eastwest;top=0;left=0;right=0;bottom=0;" parent="fVC-7h64p_L4P-U5fZA1-111" vertex="1">
          <mxGeometry y="60" width="250" height="30" as="geometry" />
        </mxCell>
        <mxCell id="fVC-7h64p_L4P-U5fZA1-116" value="FK1" style="shape=partialRectangle;overflow=hidden;connectable=0;fillColor=none;top=0;left=0;bottom=0;right=0;" parent="fVC-7h64p_L4P-U5fZA1-115" vertex="1">
          <mxGeometry width="30" height="30" as="geometry">
            <mxRectangle width="30" height="30" as="alternateBounds" />
          </mxGeometry>
        </mxCell>
        <mxCell id="fVC-7h64p_L4P-U5fZA1-117" value="order_id int NOT NULL" style="shape=partialRectangle;overflow=hidden;connectable=0;fillColor=none;top=0;left=0;bottom=0;right=0;align=left;spacingLeft=6;" parent="fVC-7h64p_L4P-U5fZA1-115" vertex="1">
          <mxGeometry x="30" width="220" height="30" as="geometry">
            <mxRectangle width="220" height="30" as="alternateBounds" />
          </mxGeometry>
        </mxCell>
        <mxCell id="fVC-7h64p_L4P-U5fZA1-118" value="" style="shape=partialRectangle;collapsible=0;dropTarget=0;pointerEvents=0;fillColor=none;points=[[0,0.5],[1,0.5]];portConstraint=eastwest;top=0;left=0;right=0;bottom=0;" parent="fVC-7h64p_L4P-U5fZA1-111" vertex="1">
          <mxGeometry y="90" width="250" height="30" as="geometry" />
        </mxCell>
        <mxCell id="fVC-7h64p_L4P-U5fZA1-119" value="" style="shape=partialRectangle;overflow=hidden;connectable=0;fillColor=none;top=0;left=0;bottom=0;right=0;" parent="fVC-7h64p_L4P-U5fZA1-118" vertex="1">
          <mxGeometry width="30" height="30" as="geometry">
            <mxRectangle width="30" height="30" as="alternateBounds" />
          </mxGeometry>
        </mxCell>
        <mxCell id="fVC-7h64p_L4P-U5fZA1-120" value="shipment_date date NOT NULL" style="shape=partialRectangle;overflow=hidden;connectable=0;fillColor=none;top=0;left=0;bottom=0;right=0;align=left;spacingLeft=6;" parent="fVC-7h64p_L4P-U5fZA1-118" vertex="1">
          <mxGeometry x="30" width="220" height="30" as="geometry">
            <mxRectangle width="220" height="30" as="alternateBounds" />
          </mxGeometry>
        </mxCell>
        <mxCell id="fVC-7h64p_L4P-U5fZA1-121" value="Customers" style="shape=table;startSize=30;container=1;collapsible=1;childLayout=tableLayout;fixedRows=1;rowLines=0;fontStyle=1;align=center;resizeLast=1;" parent="1" vertex="1">
          <mxGeometry x="820" y="500" width="250" height="100" as="geometry" />
        </mxCell>
        <mxCell id="fVC-7h64p_L4P-U5fZA1-122" value="" style="shape=partialRectangle;collapsible=0;dropTarget=0;pointerEvents=0;fillColor=none;points=[[0,0.5],[1,0.5]];portConstraint=eastwest;top=0;left=0;right=0;bottom=1;" parent="fVC-7h64p_L4P-U5fZA1-121" vertex="1">
          <mxGeometry y="30" width="250" height="30" as="geometry" />
        </mxCell>
        <mxCell id="fVC-7h64p_L4P-U5fZA1-123" value="PK" style="shape=partialRectangle;overflow=hidden;connectable=0;fillColor=none;top=0;left=0;bottom=0;right=0;fontStyle=1;" parent="fVC-7h64p_L4P-U5fZA1-122" vertex="1">
          <mxGeometry width="30" height="30" as="geometry">
            <mxRectangle width="30" height="30" as="alternateBounds" />
          </mxGeometry>
        </mxCell>
        <mxCell id="fVC-7h64p_L4P-U5fZA1-124" value="customer_id int NOT NULL " style="shape=partialRectangle;overflow=hidden;connectable=0;fillColor=none;top=0;left=0;bottom=0;right=0;align=left;spacingLeft=6;fontStyle=5;" parent="fVC-7h64p_L4P-U5fZA1-122" vertex="1">
          <mxGeometry x="30" width="220" height="30" as="geometry">
            <mxRectangle width="220" height="30" as="alternateBounds" />
          </mxGeometry>
        </mxCell>
        <mxCell id="fVC-7h64p_L4P-U5fZA1-125" value="" style="shape=partialRectangle;collapsible=0;dropTarget=0;pointerEvents=0;fillColor=none;points=[[0,0.5],[1,0.5]];portConstraint=eastwest;top=0;left=0;right=0;bottom=0;" parent="fVC-7h64p_L4P-U5fZA1-121" vertex="1">
          <mxGeometry y="60" width="250" height="30" as="geometry" />
        </mxCell>
        <mxCell id="fVC-7h64p_L4P-U5fZA1-126" value="" style="shape=partialRectangle;overflow=hidden;connectable=0;fillColor=none;top=0;left=0;bottom=0;right=0;" parent="fVC-7h64p_L4P-U5fZA1-125" vertex="1">
          <mxGeometry width="30" height="30" as="geometry">
            <mxRectangle width="30" height="30" as="alternateBounds" />
          </mxGeometry>
        </mxCell>
        <mxCell id="fVC-7h64p_L4P-U5fZA1-127" value="customer_name char(50) NOT NULL" style="shape=partialRectangle;overflow=hidden;connectable=0;fillColor=none;top=0;left=0;bottom=0;right=0;align=left;spacingLeft=6;" parent="fVC-7h64p_L4P-U5fZA1-125" vertex="1">
          <mxGeometry x="30" width="220" height="30" as="geometry">
            <mxRectangle width="220" height="30" as="alternateBounds" />
          </mxGeometry>
        </mxCell>
        <mxCell id="fVC-7h64p_L4P-U5fZA1-128" value="Object" style="html=1;rounded=0;shadow=0;comic=0;labelBackgroundColor=none;strokeWidth=2;fontFamily=Verdana;fontSize=12;align=center;shape=mxgraph.ios7ui.horLines;" parent="1" vertex="1">
          <mxGeometry x="1692.5" y="440" width="135" height="50" as="geometry" />
        </mxCell>
        <mxCell id="fVC-7h64p_L4P-U5fZA1-129" value="Function" style="swimlane;html=1;fontStyle=0;childLayout=stackLayout;horizontal=1;startSize=26;fillColor=#e0e0e0;horizontalStack=0;resizeParent=1;resizeLast=0;collapsible=1;marginBottom=0;swimlaneFillColor=#ffffff;align=center;rounded=1;shadow=0;comic=0;labelBackgroundColor=none;strokeWidth=1;fontFamily=Verdana;fontSize=12" parent="1" vertex="1">
          <mxGeometry x="1680" y="74" width="160" height="110" as="geometry" />
        </mxCell>
        <mxCell id="fVC-7h64p_L4P-U5fZA1-130" value="Row 1" style="text;html=1;strokeColor=none;fillColor=none;spacingLeft=4;spacingRight=4;whiteSpace=wrap;overflow=hidden;rotatable=0;points=[[0,0.5],[1,0.5]];portConstraint=eastwest;" parent="fVC-7h64p_L4P-U5fZA1-129" vertex="1">
          <mxGeometry y="26" width="160" height="26" as="geometry" />
        </mxCell>
        <mxCell id="fVC-7h64p_L4P-U5fZA1-131" value="Row 2" style="text;html=1;strokeColor=none;fillColor=none;spacingLeft=4;spacingRight=4;whiteSpace=wrap;overflow=hidden;rotatable=0;points=[[0,0.5],[1,0.5]];portConstraint=eastwest;" parent="fVC-7h64p_L4P-U5fZA1-129" vertex="1">
          <mxGeometry y="52" width="160" height="26" as="geometry" />
        </mxCell>
        <mxCell id="fVC-7h64p_L4P-U5fZA1-132" value="Row 3" style="text;html=1;strokeColor=none;fillColor=none;spacingLeft=4;spacingRight=4;whiteSpace=wrap;overflow=hidden;rotatable=0;points=[[0,0.5],[1,0.5]];portConstraint=eastwest;" parent="fVC-7h64p_L4P-U5fZA1-129" vertex="1">
          <mxGeometry y="78" width="160" height="26" as="geometry" />
        </mxCell>
        <mxCell id="fVC-7h64p_L4P-U5fZA1-133" value="Function" style="swimlane;html=1;fontStyle=0;childLayout=stackLayout;horizontal=1;startSize=26;fillColor=#e0e0e0;horizontalStack=0;resizeParent=1;resizeLast=0;collapsible=1;marginBottom=0;swimlaneFillColor=#ffffff;align=center;rounded=1;shadow=0;comic=0;labelBackgroundColor=none;strokeWidth=1;fontFamily=Verdana;fontSize=12" parent="1" vertex="1">
          <mxGeometry x="2080" y="74" width="160" height="130" as="geometry" />
        </mxCell>
        <mxCell id="fVC-7h64p_L4P-U5fZA1-134" value="Row 1" style="text;html=1;strokeColor=none;fillColor=none;spacingLeft=4;spacingRight=4;whiteSpace=wrap;overflow=hidden;rotatable=0;points=[[0,0.5],[1,0.5]];portConstraint=eastwest;" parent="fVC-7h64p_L4P-U5fZA1-133" vertex="1">
          <mxGeometry y="26" width="160" height="26" as="geometry" />
        </mxCell>
        <mxCell id="fVC-7h64p_L4P-U5fZA1-135" value="Row 2" style="text;html=1;strokeColor=none;fillColor=none;spacingLeft=4;spacingRight=4;whiteSpace=wrap;overflow=hidden;rotatable=0;points=[[0,0.5],[1,0.5]];portConstraint=eastwest;" parent="fVC-7h64p_L4P-U5fZA1-133" vertex="1">
          <mxGeometry y="52" width="160" height="26" as="geometry" />
        </mxCell>
        <mxCell id="fVC-7h64p_L4P-U5fZA1-136" value="Row 3" style="text;html=1;strokeColor=none;fillColor=none;spacingLeft=4;spacingRight=4;whiteSpace=wrap;overflow=hidden;rotatable=0;points=[[0,0.5],[1,0.5]];portConstraint=eastwest;" parent="fVC-7h64p_L4P-U5fZA1-133" vertex="1">
          <mxGeometry y="78" width="160" height="26" as="geometry" />
        </mxCell>
        <mxCell id="fVC-7h64p_L4P-U5fZA1-137" value="Row 4" style="text;html=1;strokeColor=none;fillColor=none;spacingLeft=4;spacingRight=4;whiteSpace=wrap;overflow=hidden;rotatable=0;points=[[0,0.5],[1,0.5]];portConstraint=eastwest;" parent="fVC-7h64p_L4P-U5fZA1-133" vertex="1">
          <mxGeometry y="104" width="160" height="26" as="geometry" />
        </mxCell>
        <mxCell id="fVC-7h64p_L4P-U5fZA1-138" value="Function" style="swimlane;html=1;fontStyle=0;childLayout=stackLayout;horizontal=1;startSize=26;fillColor=#e0e0e0;horizontalStack=0;resizeParent=1;resizeLast=0;collapsible=1;marginBottom=0;swimlaneFillColor=#ffffff;align=center;rounded=1;shadow=0;comic=0;labelBackgroundColor=none;strokeWidth=1;fontFamily=Verdana;fontSize=12" parent="1" vertex="1">
          <mxGeometry x="1680" y="266" width="160" height="110" as="geometry" />
        </mxCell>
        <mxCell id="fVC-7h64p_L4P-U5fZA1-139" value="Row 1" style="text;html=1;strokeColor=none;fillColor=none;spacingLeft=4;spacingRight=4;whiteSpace=wrap;overflow=hidden;rotatable=0;points=[[0,0.5],[1,0.5]];portConstraint=eastwest;" parent="fVC-7h64p_L4P-U5fZA1-138" vertex="1">
          <mxGeometry y="26" width="160" height="26" as="geometry" />
        </mxCell>
        <mxCell id="fVC-7h64p_L4P-U5fZA1-140" value="Row 2" style="text;html=1;strokeColor=none;fillColor=none;spacingLeft=4;spacingRight=4;whiteSpace=wrap;overflow=hidden;rotatable=0;points=[[0,0.5],[1,0.5]];portConstraint=eastwest;" parent="fVC-7h64p_L4P-U5fZA1-138" vertex="1">
          <mxGeometry y="52" width="160" height="26" as="geometry" />
        </mxCell>
        <mxCell id="fVC-7h64p_L4P-U5fZA1-141" value="Row 3" style="text;html=1;strokeColor=none;fillColor=none;spacingLeft=4;spacingRight=4;whiteSpace=wrap;overflow=hidden;rotatable=0;points=[[0,0.5],[1,0.5]];portConstraint=eastwest;" parent="fVC-7h64p_L4P-U5fZA1-138" vertex="1">
          <mxGeometry y="78" width="160" height="26" as="geometry" />
        </mxCell>
        <mxCell id="fVC-7h64p_L4P-U5fZA1-142" value="Function" style="swimlane;html=1;fontStyle=0;childLayout=stackLayout;horizontal=1;startSize=26;fillColor=#e0e0e0;horizontalStack=0;resizeParent=1;resizeLast=0;collapsible=1;marginBottom=0;swimlaneFillColor=#ffffff;align=center;rounded=1;shadow=0;comic=0;labelBackgroundColor=none;strokeWidth=1;fontFamily=Verdana;fontSize=12" parent="1" vertex="1">
          <mxGeometry x="1680" y="570" width="160" height="140" as="geometry" />
        </mxCell>
        <mxCell id="fVC-7h64p_L4P-U5fZA1-143" value="Row 1" style="text;html=1;strokeColor=none;fillColor=none;spacingLeft=4;spacingRight=4;whiteSpace=wrap;overflow=hidden;rotatable=0;points=[[0,0.5],[1,0.5]];portConstraint=eastwest;" parent="fVC-7h64p_L4P-U5fZA1-142" vertex="1">
          <mxGeometry y="26" width="160" height="26" as="geometry" />
        </mxCell>
        <mxCell id="fVC-7h64p_L4P-U5fZA1-144" value="Row 2" style="text;html=1;strokeColor=none;fillColor=none;spacingLeft=4;spacingRight=4;whiteSpace=wrap;overflow=hidden;rotatable=0;points=[[0,0.5],[1,0.5]];portConstraint=eastwest;" parent="fVC-7h64p_L4P-U5fZA1-142" vertex="1">
          <mxGeometry y="52" width="160" height="26" as="geometry" />
        </mxCell>
        <mxCell id="fVC-7h64p_L4P-U5fZA1-145" value="Row 3" style="text;html=1;strokeColor=none;fillColor=none;spacingLeft=4;spacingRight=4;whiteSpace=wrap;overflow=hidden;rotatable=0;points=[[0,0.5],[1,0.5]];portConstraint=eastwest;" parent="fVC-7h64p_L4P-U5fZA1-142" vertex="1">
          <mxGeometry y="78" width="160" height="26" as="geometry" />
        </mxCell>
        <mxCell id="fVC-7h64p_L4P-U5fZA1-146" value="Row 4" style="text;html=1;strokeColor=none;fillColor=none;spacingLeft=4;spacingRight=4;whiteSpace=wrap;overflow=hidden;rotatable=0;points=[[0,0.5],[1,0.5]];portConstraint=eastwest;" parent="fVC-7h64p_L4P-U5fZA1-142" vertex="1">
          <mxGeometry y="104" width="160" height="26" as="geometry" />
        </mxCell>
        <mxCell id="fVC-7h64p_L4P-U5fZA1-147" value="Function" style="swimlane;html=1;fontStyle=0;childLayout=stackLayout;horizontal=1;startSize=26;fillColor=#e0e0e0;horizontalStack=0;resizeParent=1;resizeLast=0;collapsible=1;marginBottom=0;swimlaneFillColor=#ffffff;align=center;rounded=1;shadow=0;comic=0;labelBackgroundColor=none;strokeWidth=1;fontFamily=Verdana;fontSize=12" parent="1" vertex="1">
          <mxGeometry x="2080" y="266" width="160" height="84" as="geometry" />
        </mxCell>
        <mxCell id="fVC-7h64p_L4P-U5fZA1-148" value="Row 1" style="text;html=1;strokeColor=none;fillColor=none;spacingLeft=4;spacingRight=4;whiteSpace=wrap;overflow=hidden;rotatable=0;points=[[0,0.5],[1,0.5]];portConstraint=eastwest;" parent="fVC-7h64p_L4P-U5fZA1-147" vertex="1">
          <mxGeometry y="26" width="160" height="26" as="geometry" />
        </mxCell>
        <mxCell id="fVC-7h64p_L4P-U5fZA1-149" value="Row 2" style="text;html=1;strokeColor=none;fillColor=none;spacingLeft=4;spacingRight=4;whiteSpace=wrap;overflow=hidden;rotatable=0;points=[[0,0.5],[1,0.5]];portConstraint=eastwest;" parent="fVC-7h64p_L4P-U5fZA1-147" vertex="1">
          <mxGeometry y="52" width="160" height="26" as="geometry" />
        </mxCell>
        <mxCell id="fVC-7h64p_L4P-U5fZA1-150" value="Function" style="swimlane;html=1;fontStyle=0;childLayout=stackLayout;horizontal=1;startSize=26;fillColor=#e0e0e0;horizontalStack=0;resizeParent=1;resizeLast=0;collapsible=1;marginBottom=0;swimlaneFillColor=#ffffff;align=center;rounded=1;shadow=0;comic=0;labelBackgroundColor=none;strokeWidth=1;fontFamily=Verdana;fontSize=12" parent="1" vertex="1">
          <mxGeometry x="2080" y="570" width="160" height="110" as="geometry" />
        </mxCell>
        <mxCell id="fVC-7h64p_L4P-U5fZA1-151" value="Row 1" style="text;html=1;strokeColor=none;fillColor=none;spacingLeft=4;spacingRight=4;whiteSpace=wrap;overflow=hidden;rotatable=0;points=[[0,0.5],[1,0.5]];portConstraint=eastwest;" parent="fVC-7h64p_L4P-U5fZA1-150" vertex="1">
          <mxGeometry y="26" width="160" height="26" as="geometry" />
        </mxCell>
        <mxCell id="fVC-7h64p_L4P-U5fZA1-152" value="Row 2" style="text;html=1;strokeColor=none;fillColor=none;spacingLeft=4;spacingRight=4;whiteSpace=wrap;overflow=hidden;rotatable=0;points=[[0,0.5],[1,0.5]];portConstraint=eastwest;" parent="fVC-7h64p_L4P-U5fZA1-150" vertex="1">
          <mxGeometry y="52" width="160" height="26" as="geometry" />
        </mxCell>
        <mxCell id="fVC-7h64p_L4P-U5fZA1-153" value="Row 3" style="text;html=1;strokeColor=none;fillColor=none;spacingLeft=4;spacingRight=4;whiteSpace=wrap;overflow=hidden;rotatable=0;points=[[0,0.5],[1,0.5]];portConstraint=eastwest;" parent="fVC-7h64p_L4P-U5fZA1-150" vertex="1">
          <mxGeometry y="78" width="160" height="26" as="geometry" />
        </mxCell>
        <mxCell id="fVC-7h64p_L4P-U5fZA1-154" value="Object" style="html=1;rounded=0;shadow=0;comic=0;labelBackgroundColor=none;strokeWidth=2;fontFamily=Verdana;fontSize=12;align=center;shape=mxgraph.ios7ui.horLines;" parent="1" vertex="1">
          <mxGeometry x="1900" y="440" width="135" height="50" as="geometry" />
        </mxCell>
        <mxCell id="fVC-7h64p_L4P-U5fZA1-155" style="edgeStyle=none;html=1;labelBackgroundColor=none;startFill=0;startSize=8;endFill=1;endSize=8;fontFamily=Verdana;fontSize=12;" parent="1" source="fVC-7h64p_L4P-U5fZA1-142" target="fVC-7h64p_L4P-U5fZA1-128" edge="1">
          <mxGeometry relative="1" as="geometry" />
        </mxCell>
        <mxCell id="fVC-7h64p_L4P-U5fZA1-156" style="edgeStyle=none;html=1;labelBackgroundColor=none;startFill=0;startSize=8;endFill=1;endSize=8;fontFamily=Verdana;fontSize=12;" parent="1" source="fVC-7h64p_L4P-U5fZA1-128" target="fVC-7h64p_L4P-U5fZA1-138" edge="1">
          <mxGeometry relative="1" as="geometry" />
        </mxCell>
        <mxCell id="fVC-7h64p_L4P-U5fZA1-157" style="edgeStyle=orthogonalEdgeStyle;html=1;labelBackgroundColor=none;startFill=0;startSize=8;endFill=1;endSize=8;fontFamily=Verdana;fontSize=12;exitX=1;exitY=0.25;entryX=1;entryY=0.5;" parent="1" source="fVC-7h64p_L4P-U5fZA1-142" target="fVC-7h64p_L4P-U5fZA1-141" edge="1">
          <mxGeometry relative="1" as="geometry">
            <Array as="points">
              <mxPoint x="1870" y="605" />
              <mxPoint x="1870" y="357" />
            </Array>
          </mxGeometry>
        </mxCell>
        <mxCell id="fVC-7h64p_L4P-U5fZA1-158" value="" style="edgeStyle=orthogonalEdgeStyle;html=1;labelBackgroundColor=none;startFill=0;startSize=8;endFill=1;endSize=8;fontFamily=Verdana;fontSize=12;" parent="1" source="fVC-7h64p_L4P-U5fZA1-154" target="fVC-7h64p_L4P-U5fZA1-151" edge="1">
          <mxGeometry x="-0.1342" y="32" relative="1" as="geometry">
            <mxPoint as="offset" />
          </mxGeometry>
        </mxCell>
        <mxCell id="fVC-7h64p_L4P-U5fZA1-159" style="edgeStyle=orthogonalEdgeStyle;html=1;labelBackgroundColor=none;startFill=0;startSize=8;endFill=1;endSize=8;fontFamily=Verdana;fontSize=12;" parent="1" source="fVC-7h64p_L4P-U5fZA1-138" target="fVC-7h64p_L4P-U5fZA1-154" edge="1">
          <mxGeometry relative="1" as="geometry">
            <Array as="points">
              <mxPoint x="1968" y="340" />
            </Array>
          </mxGeometry>
        </mxCell>
        <mxCell id="fVC-7h64p_L4P-U5fZA1-160" style="edgeStyle=orthogonalEdgeStyle;html=1;labelBackgroundColor=none;startFill=0;startSize=8;endFill=1;endSize=8;fontFamily=Verdana;fontSize=12;" parent="1" source="fVC-7h64p_L4P-U5fZA1-129" target="fVC-7h64p_L4P-U5fZA1-138" edge="1">
          <mxGeometry relative="1" as="geometry" />
        </mxCell>
        <mxCell id="fVC-7h64p_L4P-U5fZA1-161" style="edgeStyle=orthogonalEdgeStyle;html=1;labelBackgroundColor=none;startFill=0;startSize=8;endFill=1;endSize=8;fontFamily=Verdana;fontSize=12;" parent="1" source="fVC-7h64p_L4P-U5fZA1-150" target="fVC-7h64p_L4P-U5fZA1-147" edge="1">
          <mxGeometry relative="1" as="geometry" />
        </mxCell>
        <mxCell id="fVC-7h64p_L4P-U5fZA1-162" style="edgeStyle=orthogonalEdgeStyle;html=1;labelBackgroundColor=none;startFill=0;startSize=8;endFill=1;endSize=8;fontFamily=Verdana;fontSize=12;" parent="1" source="fVC-7h64p_L4P-U5fZA1-133" target="fVC-7h64p_L4P-U5fZA1-147" edge="1">
          <mxGeometry relative="1" as="geometry" />
        </mxCell>
        <mxCell id="fVC-7h64p_L4P-U5fZA1-163" style="edgeStyle=orthogonalEdgeStyle;html=1;entryX=0;entryY=0.5;labelBackgroundColor=none;startFill=0;startSize=8;endFill=1;endSize=8;fontFamily=Verdana;fontSize=12;exitX=1;exitY=0.5;" parent="1" source="fVC-7h64p_L4P-U5fZA1-131" target="fVC-7h64p_L4P-U5fZA1-135" edge="1">
          <mxGeometry relative="1" as="geometry">
            <Array as="points" />
          </mxGeometry>
        </mxCell>
        <mxCell id="fVC-7h64p_L4P-U5fZA1-164" style="edgeStyle=orthogonalEdgeStyle;html=1;exitX=0;exitY=0.5;entryX=1;entryY=0.5;labelBackgroundColor=none;startFill=0;startSize=8;endFill=1;endSize=8;fontFamily=Verdana;fontSize=12;" parent="1" source="fVC-7h64p_L4P-U5fZA1-134" target="fVC-7h64p_L4P-U5fZA1-130" edge="1">
          <mxGeometry relative="1" as="geometry" />
        </mxCell>
        <mxCell id="fVC-7h64p_L4P-U5fZA1-165" style="edgeStyle=orthogonalEdgeStyle;html=1;exitX=1;exitY=0.5;entryX=0;entryY=0.5;labelBackgroundColor=none;startFill=0;startSize=8;endFill=1;endSize=8;fontFamily=Verdana;fontSize=12;" parent="1" source="fVC-7h64p_L4P-U5fZA1-132" target="fVC-7h64p_L4P-U5fZA1-148" edge="1">
          <mxGeometry relative="1" as="geometry" />
        </mxCell>
        <mxCell id="fVC-7h64p_L4P-U5fZA1-166" style="edgeStyle=orthogonalEdgeStyle;html=1;exitX=1;exitY=0.5;entryX=0;entryY=0.5;labelBackgroundColor=none;startFill=0;startSize=8;endFill=1;endSize=8;fontFamily=Verdana;fontSize=12;" parent="1" source="fVC-7h64p_L4P-U5fZA1-140" target="fVC-7h64p_L4P-U5fZA1-149" edge="1">
          <mxGeometry relative="1" as="geometry">
            <Array as="points" />
          </mxGeometry>
        </mxCell>
        <mxCell id="fVC-7h64p_L4P-U5fZA1-167" style="edgeStyle=orthogonalEdgeStyle;html=1;labelBackgroundColor=none;startFill=0;startSize=8;endFill=1;endSize=8;fontFamily=Verdana;fontSize=12;" parent="1" source="fVC-7h64p_L4P-U5fZA1-149" edge="1">
          <mxGeometry relative="1" as="geometry">
            <mxPoint x="2400" y="331" as="targetPoint" />
          </mxGeometry>
        </mxCell>
        <mxCell id="fVC-7h64p_L4P-U5fZA1-168" style="edgeStyle=orthogonalEdgeStyle;html=1;exitX=1;exitY=0.5;labelBackgroundColor=none;startFill=0;startSize=8;endFill=1;endSize=8;fontFamily=Verdana;fontSize=12;" parent="1" source="fVC-7h64p_L4P-U5fZA1-151" edge="1">
          <mxGeometry relative="1" as="geometry">
            <mxPoint x="2400" y="609" as="targetPoint" />
          </mxGeometry>
        </mxCell>
        <mxCell id="fVC-7h64p_L4P-U5fZA1-169" style="edgeStyle=orthogonalEdgeStyle;html=1;labelBackgroundColor=none;startFill=0;startSize=8;endFill=1;endSize=8;fontFamily=Verdana;fontSize=12;entryX=1;entryY=0.5;" parent="1" target="fVC-7h64p_L4P-U5fZA1-152" edge="1">
          <mxGeometry relative="1" as="geometry">
            <mxPoint x="2410" y="619" as="targetPoint" />
            <mxPoint x="2400" y="635" as="sourcePoint" />
            <Array as="points">
              <mxPoint x="2400" y="635" />
            </Array>
          </mxGeometry>
        </mxCell>
        <mxCell id="fVC-7h64p_L4P-U5fZA1-170" style="edgeStyle=orthogonalEdgeStyle;html=1;labelBackgroundColor=none;startFill=0;startSize=8;endFill=1;endSize=8;fontFamily=Verdana;fontSize=12;entryX=1;entryY=0.5;" parent="1" target="fVC-7h64p_L4P-U5fZA1-153" edge="1">
          <mxGeometry relative="1" as="geometry">
            <mxPoint x="2250.190476190476" y="645.0952380952381" as="targetPoint" />
            <mxPoint x="2400" y="661" as="sourcePoint" />
            <Array as="points">
              <mxPoint x="2320" y="661" />
              <mxPoint x="2320" y="661" />
            </Array>
          </mxGeometry>
        </mxCell>
        <mxCell id="fVC-7h64p_L4P-U5fZA1-171" style="edgeStyle=orthogonalEdgeStyle;html=1;exitX=1;exitY=0.5;labelBackgroundColor=none;startFill=0;startSize=8;endFill=1;endSize=8;fontFamily=Verdana;fontSize=12;" parent="1" source="fVC-7h64p_L4P-U5fZA1-134" edge="1">
          <mxGeometry relative="1" as="geometry">
            <mxPoint x="2400" y="113" as="targetPoint" />
          </mxGeometry>
        </mxCell>
        <mxCell id="fVC-7h64p_L4P-U5fZA1-172" style="edgeStyle=orthogonalEdgeStyle;html=1;exitX=1;exitY=0.5;labelBackgroundColor=none;startFill=0;startSize=8;endFill=1;endSize=8;fontFamily=Verdana;fontSize=12;" parent="1" source="fVC-7h64p_L4P-U5fZA1-135" edge="1">
          <mxGeometry relative="1" as="geometry">
            <mxPoint x="2400" y="139" as="targetPoint" />
          </mxGeometry>
        </mxCell>
        <mxCell id="fVC-7h64p_L4P-U5fZA1-173" style="edgeStyle=orthogonalEdgeStyle;html=1;exitX=1;exitY=0.5;labelBackgroundColor=none;startFill=0;startSize=8;endFill=1;endSize=8;fontFamily=Verdana;fontSize=12;" parent="1" source="fVC-7h64p_L4P-U5fZA1-136" edge="1">
          <mxGeometry relative="1" as="geometry">
            <mxPoint x="2400" y="165" as="targetPoint" />
            <Array as="points" />
          </mxGeometry>
        </mxCell>
        <mxCell id="fVC-7h64p_L4P-U5fZA1-174" style="edgeStyle=elbowEdgeStyle;html=1;labelBackgroundColor=none;startFill=0;startSize=8;endFill=1;endSize=8;fontFamily=Verdana;fontSize=12;elbow=vertical;entryX=1.011;entryY=0.152;entryPerimeter=0;" parent="1" target="fVC-7h64p_L4P-U5fZA1-133" edge="1">
          <mxGeometry relative="1" as="geometry">
            <mxPoint x="2260" y="89" as="targetPoint" />
            <mxPoint x="2400" y="94" as="sourcePoint" />
            <Array as="points">
              <mxPoint x="2330" y="94" />
            </Array>
          </mxGeometry>
        </mxCell>
      </root>
    </mxGraphModel>
  </diagram>
</mxfile>
